<svg xmlns="http://www.w3.org/2000/svg" enable-background="new 0 0 64 64" viewBox="0 0 64 64"><path fill="#f6b64e" d="M20.45 29.68c-.28 0-.56-.15-.71-.41-.23-.39-.1-.9.29-1.13.32-.32.83-.31 1.15.02.32.32.3.86-.02 1.19-.09.09-.18.16-.29.23C20.73 29.64 20.59 29.68 20.45 29.68zM9.54 29.98c-.16 0-.32-.05-.46-.14-2.78-1.89-4.44-5.03-4.44-8.4 0-5.6 4.55-10.15 10.15-10.15 3.48 0 6.68 1.74 8.54 4.67.25.39.13.9-.25 1.14-.38.25-.9.13-1.14-.25-1.56-2.44-4.23-3.9-7.14-3.9-4.68 0-8.49 3.81-8.49 8.5 0 2.82 1.39 5.45 3.72 7.03.38.26.48.77.22 1.15C10.07 29.85 9.81 29.98 9.54 29.98z"/><path fill="#fff" d="M53.45,45.18h-2.76c-0.46,0-0.83-0.37-0.83-0.83s0.37-0.83,0.83-0.83h2.76c2.36,0,4.6-0.93,6.29-2.61
					c1.68-1.68,2.6-3.92,2.6-6.3c0-3.89-2.49-7.29-6.18-8.47c-0.43-0.14-0.67-0.59-0.55-1.02c0.3-1.03,0.45-2.11,0.45-3.19
					c0-6.53-5.31-11.84-11.85-11.84c-4.64,0-8.88,2.73-10.79,6.96c-0.1,0.22-0.29,0.39-0.52,0.45c-0.23,0.07-0.48,0.03-0.68-0.1
					c-1.45-0.94-3.12-1.44-4.84-1.44c-4.9,0-8.89,4-8.89,8.91c0,0.45,0.03,0.86,0.09,1.24c0.05,0.33-0.1,0.66-0.39,0.83
					c-0.53,0.32-1,0.67-1.41,1.03c-0.34,0.3-0.86,0.27-1.17-0.06c-0.3-0.34-0.28-0.86,0.06-1.17c0.36-0.32,0.76-0.63,1.2-0.92
					c-0.03-0.3-0.04-0.62-0.04-0.95c0-5.83,4.73-10.57,10.55-10.57c1.73,0,3.42,0.42,4.94,1.23c2.34-4.34,6.91-7.11,11.89-7.11
					c7.44,0,13.5,6.05,13.5,13.49c0,0.98-0.11,1.95-0.32,2.89c3.98,1.59,6.6,5.43,6.6,9.78c0,2.82-1.1,5.47-3.09,7.47
					C58.9,44.09,56.25,45.18,53.45,45.18z"/><path fill="#fff" d="M41.28,57.35H10.56C4.74,57.35,0,52.61,0,46.78c0-2.83,1.1-5.48,3.09-7.46C3.58,38.83,4.12,38.39,4.7,38
					c-0.03-0.31-0.04-0.63-0.04-0.94c0-5.82,4.74-10.56,10.56-10.56c1.73,0,3.42,0.42,4.94,1.23c2.33-4.35,6.9-7.11,11.89-7.11
					c7.44,0,13.5,6.06,13.5,13.5c0,0.99-0.11,1.95-0.31,2.89c3.98,1.6,6.6,5.44,6.6,9.78c0,2.82-1.1,5.47-3.09,7.47
					C46.74,56.25,44.09,57.35,41.28,57.35z M15.22,28.15c-4.91,0-8.9,4-8.9,8.91c0,0.43,0.03,0.84,0.09,1.25
					c0.05,0.33-0.11,0.66-0.4,0.83c-0.64,0.38-1.23,0.84-1.75,1.36c-1.68,1.67-2.61,3.91-2.61,6.29c0,4.91,3.99,8.91,8.9,8.91h30.72
					c2.37,0,4.61-0.93,6.29-2.61c1.68-1.69,2.61-3.92,2.61-6.3c0-3.89-2.48-7.29-6.18-8.47c-0.43-0.14-0.67-0.59-0.54-1.02
					c0.29-1.01,0.44-2.08,0.44-3.18c0-6.53-5.31-11.85-11.85-11.85c-4.64,0-8.88,2.73-10.79,6.96c-0.1,0.22-0.29,0.39-0.52,0.45
					c-0.23,0.07-0.48,0.03-0.68-0.1C18.61,28.64,16.94,28.15,15.22,28.15z"/><path fill="#f6b64e" d="M20.38 12.58c-.14 0-.28-.04-.41-.11-.4-.23-.53-.74-.3-1.13l1.39-2.4c.23-.39.74-.53 1.13-.3.4.23.53.74.3 1.13l-1.39 2.4C20.94 12.43 20.66 12.58 20.38 12.58zM14.79 11.08c-.46 0-.83-.37-.83-.83V7.48c0-.46.37-.83.83-.83s.83.37.83.83v2.78C15.62 10.71 15.24 11.08 14.79 11.08zM9.2 12.58c-.29 0-.56-.15-.72-.41l-1.39-2.4C6.86 9.37 7 8.86 7.39 8.63c.4-.23.9-.09 1.13.3l1.39 2.4c.23.4.09.9-.3 1.13C9.48 12.55 9.34 12.58 9.2 12.58zM5.1 16.68c-.14 0-.28-.04-.41-.11l-2.4-1.39c-.4-.23-.53-.74-.3-1.13.23-.4.74-.53 1.13-.3l2.4 1.39c.4.23.53.74.3 1.13C5.67 16.53 5.39 16.68 5.1 16.68zM3.6 22.27H.83C.37 22.27 0 21.9 0 21.44c0-.46.37-.83.83-.83H3.6c.46 0 .83.37.83.83C4.43 21.9 4.06 22.27 3.6 22.27zM2.7 29.25c-.29 0-.56-.15-.72-.41-.23-.4-.09-.9.3-1.13l2.4-1.39c.4-.23.9-.09 1.13.3.23.4.09.9-.3 1.13l-2.4 1.39C2.98 29.21 2.84 29.25 2.7 29.25z"/></svg>