<svg xmlns="http://www.w3.org/2000/svg" viewBox="0 0 24 24"><path fill="#303C42" d="M18.5 8c-.036 0-.071.008-.107.009A7.966 7.966 0 0 0 11 3a7.965 7.965 0 0 0-7.948 7.26C1.282 10.867 0 12.528 0 14.5 0 16.981 2.019 19 4.5 19h14c3.033 0 5.5-2.467 5.5-5.5S21.533 8 18.5 8z"/><path fill="#64B5F6" d="M18.5 18h-14C2.57 18 1 16.43 1 14.5S2.57 11 4.5 11a.5.5 0 1 0 0-1c-.145 0-.282.03-.424.043A6.97 6.97 0 0 1 11 4a6.966 6.966 0 0 1 6.36 4.137 5.583 5.583 0 0 0-2.158.962.5.5 0 0 0 .596.802A4.563 4.563 0 0 1 18.5 9c2.481 0 4.5 2.019 4.5 4.5S20.981 18 18.5 18z"/><path d="M19.866 9.235A4.45 4.45 0 0 1 20.5 11.5c0 2.481-2.019 4.5-4.5 4.5H2c-.235 0-.464-.025-.687-.07A3.5 3.5 0 0 0 4.5 18h14c2.481 0 4.5-2.019 4.5-4.5 0-2.002-1.323-3.683-3.134-4.265z" opacity=".1"/><path fill="#FFF" d="M17.36 8.137c-.003-.007-.008-.014-.01-.021-.052.022-.104.042-.155.065.055-.013.11-.032.165-.044z" opacity=".2"/><path fill="#303C42" d="M19.476 10.59c-.377-.263-.847-.59-1.723-.59-.876 0-1.346.327-1.724.59-.33.229-.59.41-1.153.41-.562 0-.822-.181-1.152-.41-.378-.263-.848-.59-1.724-.59a.5.5 0 100 1c.562 0 .823.181 1.153.41.378.263.848.59 1.723.59.876 0 1.347-.327 1.724-.59.33-.229.59-.41 1.153-.41.562 0 .822.181 1.152.41.377.263.847.59 1.723.59.875 0 1.345-.327 1.722-.59.329-.229.589-.41 1.15-.41a.5.5 0 100-1c-.875 0-1.345.327-1.722.59-.329.229-.589.41-1.15.41-.562 0-.822-.181-1.152-.41zM23.5 19c-.875 0-1.345.327-1.722.59-.329.229-.589.41-1.15.41-.562 0-.822-.181-1.152-.41-.377-.263-.847-.59-1.723-.59-.876 0-1.346.327-1.724.59-.33.229-.59.41-1.153.41-.562 0-.822-.181-1.152-.41-.378-.263-.848-.59-1.724-.59a.5.5 0 100 1c.562 0 .823.181 1.153.41.378.263.848.59 1.723.59.876 0 1.347-.327 1.724-.59.33-.229.59-.41 1.153-.41.562 0 .822.181 1.152.41.377.263.847.59 1.723.59.875 0 1.345-.327 1.722-.59.329-.229.589-.41 1.15-.41a.5.5 0 100-1zM23.5 16c-.875 0-1.345.327-1.722.59-.329.229-.589.41-1.15.41a.5.5 0 100 1c.875 0 1.345-.327 1.722-.59.329-.229.589-.41 1.15-.41a.5.5 0 100-1zM13.153 17.41c.378.263.848.59 1.723.59.876 0 1.347-.327 1.725-.59.33-.229.59-.41 1.152-.41a.5.5 0 100-1c-.876 0-1.346.327-1.723.59-.33.229-.591.41-1.154.41-.562 0-.822-.181-1.152-.41-.378-.263-.848-.59-1.724-.59-.864 0-1.345.308-1.77.579-.367.235-.658.421-1.23.421a.5.5 0 100 1c.864 0 1.345-.308 1.77-.579.367-.235.658-.421 1.23-.421.562 0 .823.181 1.153.41zM23.5 13c-.875 0-1.345.327-1.722.59-.329.229-.589.41-1.15.41-.562 0-.822-.181-1.152-.41-.377-.263-.847-.59-1.723-.59a.5.5 0 100 1c.562 0 .822.181 1.152.41.377.263.847.59 1.723.59.875 0 1.345-.327 1.722-.59.329-.229.589-.41 1.15-.41a.5.5 0 100-1z"/><linearGradient id="a" x1="2.415" x2="24.464" y1="8.333" y2="18.615" gradientUnits="userSpaceOnUse"><stop offset="0" stop-color="#FFF" stop-opacity=".2"/><stop offset="1" stop-color="#FFF" stop-opacity="0"/></linearGradient><path fill="url(#a)" d="M23.397 11.009c.036-.002.064-.009.103-.009a.5.5 0 1 0 0-1c-.27 0-.492.038-.694.088A5.489 5.489 0 0 0 18.5 8c-.036 0-.071.008-.107.009A7.966 7.966 0 0 0 11 3a7.965 7.965 0 0 0-7.948 7.26C1.282 10.867 0 12.528 0 14.5 0 16.981 2.019 19 4.5 19h14c1.52 0 2.896-.62 3.893-1.619.309-.214.571-.381 1.107-.381a.5.5 0 1 0 0-1c-.042 0-.072.01-.112.01a5.46 5.46 0 0 0 .01-5.001zM14.877 20c-.563 0-.823-.181-1.153-.41-.378-.263-.848-.59-1.724-.59a.5.5 0 1 0 0 1c.562 0 .823.181 1.153.41.378.263.848.59 1.723.59.876 0 1.347-.327 1.724-.59.33-.229.59-.41 1.153-.41.562 0 .822.181 1.152.41.377.263.847.59 1.723.59.875 0 1.345-.327 1.722-.59.329-.229.589-.41 1.15-.41a.5.5 0 1 0 0-1c-.875 0-1.345.327-1.722.59-.329.229-.589.41-1.15.41-.562 0-.822-.181-1.152-.41-.377-.263-.847-.59-1.723-.59-.876 0-1.346.327-1.724.59-.33.229-.59.41-1.153.41z"/></svg>