<!-- 231f20  231f20 -->
<svg xmlns="http://www.w3.org/2000/svg" viewBox="0 0 512 512"><path fill="#fff" d="m263.7 242.8-9.2 12.2c-6.1 8-59.3 79.3-59.3 113.7 0 37.8 30.8 68.5 68.6 68.5s68.6-30.8 68.6-68.5c0-34.4-53.2-105.7-59.3-113.7l-9.4-12.2zm0 171.2c-25 0-45.4-20.4-45.4-45.4 0-17.3 25-58.2 45.4-87 20.4 28.8 45.4 69.7 45.4 87-.1 25-20.4 45.4-45.4 45.4z"/><path fill="#fff" d="M452.5 197.9c-6.8-15.1-19.9-26.8-35.9-31.4-4.9-1.5-10.2-2.2-15.7-2.2-1.2 0-2.6.1-3.7.2-9.5.6-18.4 3.6-26 8.3-15.5-27.4-44.9-45.9-78.7-45.9-2.2 0-4.3.1-6.5.3-8.2.5-16.1 2.2-23.6 4.9-3.1 1.1-6.2 2.4-9.2 3.8C233 99.7 194.2 75 149.9 75 84.8 75 31.7 128 31.7 193.1c0 4.9.4 9.9 1 14.7C13.2 219.9 0 241.7 0 266.5 0 304.9 31.2 336 69.5 336h102.9c5 0 9.2-5 9.2-11.1 0-5.9-3.9-10.7-8.6-11-.2-.1-.4-.1-.6-.1H85c-.2 0-.4 0-.6.1H69.5c-26.1 0-47.4-21.2-47.4-47.4 0-14.1 6.2-26.7 16.1-35.4 5.6-5 12.4-8.7 19.9-10.4-2.2-7-3.6-14.3-4-21.8-.1-2-.1-4-.1-6 0-52.9 43-96.1 96-96.1 36.6 0 68.6 20.7 84.6 51.1 1.2 1.9 2.2 4 3.1 6.1 1.9 4.5 6.3 7.6 11.5 7.6 2.3 0 4.7-.7 6.6-1.9.2-.2.4-.3.6-.5.6-.4 1.2-.8 1.8-1.1 1.4-.8 2.7-1.5 4-2.2 5-2.5 10.4-4.5 16-5.6 4.6-1 9.4-1.5 14.3-1.5 27.5 0 51.2 16.2 61.8 39.6.2 0 .2 0 .2.1 2.6 5.1 7.5 8.6 13.2 8.6 7.7 0 12.1-3.6 12.1-3.6 2.6-2.1 5.8-3.8 9-4.9 3.7-1.5 7.9-2.2 12.1-2.2 3.5 0 6.9.5 10 1.5 5.8 1.7 11 5 15 9.3l4.2 5.6c3 4.8 4.9 10.4 5.2 16.5h7.3c5.1 0 10.2.8 14.8 2.4 18.9 6.2 32.6 24 32.6 44.9 0 26.2-21.2 47.4-47.4 47.4h-6.1c-.2 0-.4-.1-.6-.1h-88.4c-.2 0-.4 0-.6.1-4.8.3-8.6 5.1-8.6 11 0 6.1 4.1 11.1 9.2 11.1h95.1c38.3 0 69.5-31.1 69.5-69.5-.1-34.9-25.9-63.9-59.6-68.7z"/></svg>