<svg xmlns="http://www.w3.org/2000/svg" enable-background="new 0 0 64 64" viewBox="0 0 64 64"><path fill="#92a1a7" d="M14 49c-.18 0-.35-.05-.51-.14-.47-.28-.63-.9-.34-1.37l3-5c.28-.47.9-.63 1.37-.34.47.28.63.9.34 1.37l-3 5C14.67 48.83 14.34 49 14 49zM25 49c-.18 0-.35-.05-.51-.14-.47-.28-.63-.9-.34-1.37l3-5c.28-.47.9-.63 1.37-.34.47.28.63.9.34 1.37l-3 5C25.67 48.83 25.34 49 25 49zM36 49c-.18 0-.35-.05-.51-.14-.47-.28-.63-.9-.34-1.37l3-5c.28-.47.9-.63 1.37-.34.47.28.63.9.34 1.37l-3 5C36.67 48.83 36.34 49 36 49zM47 49c-.18 0-.35-.05-.51-.14-.47-.28-.63-.9-.34-1.37l3-5c.28-.47.9-.63 1.37-.34.47.28.63.9.34 1.37l-3 5C47.67 48.83 47.34 49 47 49zM14 61c-.18 0-.35-.05-.51-.14-.47-.28-.63-.9-.34-1.37l3-5c.28-.47.9-.63 1.37-.34.47.28.63.9.34 1.37l-3 5C14.67 60.83 14.34 61 14 61zM25 61c-.18 0-.35-.05-.51-.14-.47-.28-.63-.9-.34-1.37l3-5c.28-.47.9-.63 1.37-.34.47.28.63.9.34 1.37l-3 5C25.67 60.83 25.34 61 25 61zM36 61c-.18 0-.35-.05-.51-.14-.47-.28-.63-.9-.34-1.37l3-5c.28-.47.9-.63 1.37-.34.47.28.63.9.34 1.37l-3 5C36.67 60.83 36.34 61 36 61zM47 61c-.18 0-.35-.05-.51-.14-.47-.28-.63-.9-.34-1.37l3-5c.28-.47.9-.63 1.37-.34.47.28.63.9.34 1.37l-3 5C47.67 60.83 47.34 61 47 61z"/><path fill="#cdd6d9" d="M25.75,4c0.85,0,1.69,0.09,2.49,0.25c-5.31,1.05-9.65,5.36-10.18,10.76C18.02,15.34,18,15.67,18,16
	c-0.34,0.05-0.68,0.11-1,0.18C12.18,17.32,9,21.79,9,27c0,6.08,4.92,11,11,11h-5C8.92,38,4,33.08,4,27c0-5.21,3.18-9.68,8-10.82
	c0.32-0.07,0.66-0.13,1-0.18c0-0.33,0.02-0.66,0.06-0.99C13.67,8.78,19.36,4,25.75,4z"/><path fill="#92a1a7" d="M55,22c-1.79-0.53-4.23-0.12-5.99,0.58C49.64,21.54,50,20.31,50,19c0-2.99-1.87-5.54-4.5-6.54
	c-2.59-1.01-5.72-0.33-7.66,1.82c-0.81-5.01-4.66-9.01-9.6-10.03c-5.31,1.05-9.65,5.36-10.18,10.76C18.02,15.34,18,15.67,18,16
	c-0.34,0.05-0.68,0.11-1,0.18C12.18,17.32,9,21.79,9,27c0,6.08,4.92,11,11,11h32c4.42,0,8-3.58,8-8C60,26.46,58.19,23.05,55,22z"/><path d="M52 21c-.43 0-.85.03-1.28.09C50.91 20.42 51 19.71 51 19c0-4.41-3.59-8-8-8-1.64 0-3.23.51-4.56 1.43C36.79 6.87 31.7 3 25.75 3c-7.2 0-13.18 5.38-13.71 12.15C6.75 16.27 3 21.12 3 27c0 6.62 5.38 12 12 12h37c4.96 0 9-4.04 9-9S56.96 21 52 21zM52 37H15C9.49 37 5 32.51 5 27c0-4.75 2.9-8.69 7.03-9.78.09 2.25.45 3.97 1.08 5.23C13.28 22.8 13.63 23 14 23c.15 0 .3-.03.45-.11.49-.25.69-.85.44-1.34-.6-1.19-.89-3-.89-5.54C14.07 10.04 19.45 5 25.75 5c5.55 0 10.22 3.97 11.1 9.44.06.38.33.69.7.8s.77 0 1.02-.29C39.71 13.71 41.32 13 43 13c3.31 0 6 2.69 6 6 0 1.09-.29 2.15-.85 3.06-.22.37-.19.84.09 1.16.28.33.73.44 1.13.28C50.23 23.17 51.11 23 52 23c3.86 0 7 3.14 7 7S55.86 37 52 37zM13.49 48.86C13.65 48.95 13.82 49 14 49c.34 0 .67-.17.86-.49l3-5c.28-.47.13-1.09-.34-1.37-.47-.29-1.09-.13-1.37.34l-3 5C12.86 47.96 13.01 48.57 13.49 48.86zM24.49 48.86C24.65 48.95 24.82 49 25 49c.34 0 .67-.17.86-.49l3-5c.28-.47.13-1.09-.34-1.37-.47-.29-1.09-.13-1.37.34l-3 5C23.86 47.96 24.01 48.57 24.49 48.86zM35.49 48.86C35.65 48.95 35.82 49 36 49c.34 0 .67-.17.86-.49l3-5c.28-.47.13-1.09-.34-1.37-.47-.29-1.09-.13-1.37.34l-3 5C34.86 47.96 35.01 48.57 35.49 48.86zM46.49 48.86C46.65 48.95 46.82 49 47 49c.34 0 .67-.17.86-.49l3-5c.28-.47.13-1.09-.34-1.37-.47-.29-1.09-.13-1.37.34l-3 5C45.86 47.96 46.01 48.57 46.49 48.86zM13.49 60.86C13.65 60.95 13.82 61 14 61c.34 0 .67-.17.86-.49l3-5c.28-.47.13-1.09-.34-1.37-.47-.29-1.09-.13-1.37.34l-3 5C12.86 59.96 13.01 60.57 13.49 60.86zM24.49 60.86C24.65 60.95 24.82 61 25 61c.34 0 .67-.17.86-.49l3-5c.28-.47.13-1.09-.34-1.37-.47-.29-1.09-.13-1.37.34l-3 5C23.86 59.96 24.01 60.57 24.49 60.86zM35.49 60.86C35.65 60.95 35.82 61 36 61c.34 0 .67-.17.86-.49l3-5c.28-.47.13-1.09-.34-1.37-.47-.29-1.09-.13-1.37.34l-3 5C34.86 59.96 35.01 60.57 35.49 60.86zM46.49 60.86C46.65 60.95 46.82 61 47 61c.34 0 .67-.17.86-.49l3-5c.28-.47.13-1.09-.34-1.37-.47-.29-1.09-.13-1.37.34l-3 5C45.86 59.96 46.01 60.57 46.49 60.86z"/></svg>