<svg xmlns="http://www.w3.org/2000/svg" data-name="Layer 1" viewBox="0 0 128 128"><circle cx="58.034" cy="35.617" r="20.032" fill="#fabe02" transform="rotate(-45 58.034 35.617)"/><path fill="#f59a1d" d="M78,36.942a25.877,25.877,0,0,0-39.269,4,20.012,20.012,0,0,0,39.269-4Z"/><path fill="#f59a1d" d="M72.2,21.452a19.99,19.99,0,0,0-17.467-5.576,20.01,20.01,0,0,1,0,39.483A20.019,20.019,0,0,0,72.2,21.452Z"/><path fill="#fabe02" d="M39.992 19.325a1.743 1.743 0 0 1-1.237-.513l-3.549-3.549a1.75 1.75 0 0 1 2.475-2.475l3.549 3.549a1.75 1.75 0 0 1-1.237 2.987zM33.39 30.764a1.743 1.743 0 0 1-.454-.06l-4.848-1.3a1.75 1.75 0 1 1 .906-3.381l4.848 1.3a1.75 1.75 0 0 1-.452 3.44zM28.54 45.27a1.75 1.75 0 0 1-.452-3.44l4.848-1.3a1.75 1.75 0 0 1 .906 3.381l-4.848 1.3A1.743 1.743 0 0 1 28.54 45.27zM64.639 12.722a1.75 1.75 0 0 1-1.691-2.2l1.3-4.848a1.75 1.75 0 0 1 3.381.906l-1.3 4.848A1.752 1.752 0 0 1 64.639 12.722zM51.43 12.722a1.751 1.751 0 0 1-1.689-1.3l-1.3-4.848a1.75 1.75 0 1 1 3.381-.906l1.3 4.848a1.75 1.75 0 0 1-1.691 2.2zM79.625 58.958a1.743 1.743 0 0 1-1.237-.513L74.838 54.9a1.75 1.75 0 0 1 2.475-2.475l3.55 3.549a1.75 1.75 0 0 1-1.237 2.987zM76.075 19.325a1.75 1.75 0 0 1-1.237-2.987l3.55-3.549a1.75 1.75 0 1 1 2.475 2.475l-3.55 3.549A1.745 1.745 0 0 1 76.075 19.325zM36.443 58.958a1.75 1.75 0 0 1-1.237-2.987l3.549-3.549A1.75 1.75 0 0 1 41.229 54.9l-3.549 3.549A1.743 1.743 0 0 1 36.443 58.958zM87.528 45.27a1.743 1.743 0 0 1-.454-.06l-4.848-1.3a1.75 1.75 0 1 1 .906-3.381l4.848 1.3a1.75 1.75 0 0 1-.452 3.44zM82.679 30.764a1.75 1.75 0 0 1-.452-3.44l4.848-1.3a1.75 1.75 0 1 1 .906 3.381l-4.848 1.3A1.743 1.743 0 0 1 82.679 30.764zM50.132 66.86a1.732 1.732 0 0 1-.454-.06 1.75 1.75 0 0 1-1.237-2.144l1.3-4.848a1.75 1.75 0 0 1 3.381.906l-1.3 4.848A1.751 1.751 0 0 1 50.132 66.86zM65.936 66.86a1.752 1.752 0 0 1-1.689-1.3l-1.3-4.848a1.75 1.75 0 0 1 3.381-.906l1.3 4.848a1.75 1.75 0 0 1-1.691 2.2z"/><path fill="#d9ecf2" d="M94.317,52.255a17.491,17.491,0,0,0-9.194,2.613,25.917,25.917,0,0,0-50.767,3.5,14.757,14.757,0,1,0-3.509,29.09h63.47a17.6,17.6,0,0,0,0-35.2Z"/><path fill="#bdd9e5" d="M84.4 52.6c-.065-.178-.147-.348-.216-.525-.147-.371-.292-.744-.455-1.106-.172-.385-.364-.76-.554-1.135-.09-.177-.174-.357-.268-.532-.259-.483-.538-.953-.826-1.417-.036-.058-.067-.119-.1-.177l0 0a25.868 25.868 0 0 0-21.9-12.094 26.143 26.143 0 0 0-3.318.216 25.847 25.847 0 0 1 15.572 7.836 20.659 20.659 0 0 1 5.328 15.654 23.363 23.363 0 0 0 0 2.9.872.872 0 0 0 1.7.224 13.451 13.451 0 0 1 5.769-7.579c-.205-.773-.458-1.525-.732-2.266zM94.317 52.255a17.4 17.4 0 0 0-3.243.313 17.595 17.595 0 0 1-3.256 34.887h6.5a17.6 17.6 0 0 0 0-35.2z"/><circle cx="74.795" cy="79.402" r="3.271" fill="#bdd9e5"/><path fill="#26a3b9" d="M58.285,85.7h-2.95l2.119-2.118a1.75,1.75,0,0,0-2.475-2.475L50.386,85.7H46.572V81.891L51.165,77.3a1.75,1.75,0,0,0-2.475-2.475l-2.118,2.119v-2.95a1.75,1.75,0,0,0-3.5,0v2.95l-2.119-2.119A1.75,1.75,0,0,0,38.479,77.3l4.594,4.594V85.7H39.258L34.664,81.11a1.75,1.75,0,0,0-2.475,2.475L34.309,85.7h-2.95a1.75,1.75,0,0,0,0,3.5h2.95l-2.119,2.119A1.75,1.75,0,1,0,34.664,93.8L39.258,89.2h3.814v3.814l-4.594,4.594a1.75,1.75,0,0,0,2.475,2.475l2.119-2.119v2.95a1.75,1.75,0,0,0,3.5,0v-2.95l2.118,2.119a1.75,1.75,0,1,0,2.475-2.475l-4.593-4.594V89.2h3.813L54.979,93.8a1.75,1.75,0,0,0,2.475-2.475L55.335,89.2h2.95a1.75,1.75,0,0,0,0-3.5Z"/><path fill="#168aa5" d="M44.651 73.991v2.95l1.921-1.921V73.991a1.748 1.748 0 0 0-2.71-1.461A1.746 1.746 0 0 1 44.651 73.991zM32.743 81.11L37.337 85.7h1.921L34.664 81.11a1.75 1.75 0 0 0-2.2-.226A1.758 1.758 0 0 1 32.743 81.11zM39.032 74.822l2.119 2.119V75.021l-.2-.2a1.75 1.75 0 0 0-2.2-.226A1.758 1.758 0 0 1 39.032 74.822zM55.533 81.111a1.749 1.749 0 0 1 0 2.475L53.414 85.7h1.921l2.119-2.118a1.75 1.75 0 0 0-2.2-2.7A1.755 1.755 0 0 1 55.533 81.111zM49.244 74.822a1.749 1.749 0 0 1 0 2.475l-4.593 4.594V85.7h1.921V81.891L51.165 77.3a1.75 1.75 0 0 0-2.2-2.7A1.758 1.758 0 0 1 49.244 74.822zM46.572 93.019V89.2H44.651v3.815l4.593 4.594a1.751 1.751 0 0 1-.277 2.7 1.75 1.75 0 0 0 2.2-2.7zM58.285 85.7H56.364a1.75 1.75 0 0 1 0 3.5h1.921a1.75 1.75 0 0 0 0-3.5zM55.335 89.2H53.414l2.119 2.119a1.751 1.751 0 0 1-.277 2.7 1.75 1.75 0 0 0 2.2-2.7zM41.151 97.968l-2.119 2.119a1.758 1.758 0 0 1-.277.226 1.75 1.75 0 0 0 2.2-.226l.2-.2zM44.651 97.968v2.95a1.746 1.746 0 0 1-.79 1.461 1.748 1.748 0 0 0 2.71-1.461V99.89zM37.337 89.2L32.743 93.8a1.758 1.758 0 0 1-.277.226 1.75 1.75 0 0 0 2.2-.226L39.258 89.2z"/><circle cx="72.515" cy="79.402" r="3.271" fill="#26a3b9"/><path fill="#168aa5" d="M72.515,76.131a3.236,3.236,0,0,0-.858.128,3.254,3.254,0,0,1,0,6.286,3.265,3.265,0,1,0,.858-6.415Z"/><path fill="#d9ecf2" d="M106.792,98.849a4.376,4.376,0,1,1-4.376-4.376A4.376,4.376,0,0,1,106.792,98.849ZM29.664,109.122a3.611,3.611,0,1,0,3.611,3.611A3.611,3.611,0,0,0,29.664,109.122Z"/><path fill="#bdd9e5" d="M29.664 109.122a3.576 3.576 0 0 0-1.211.223 3.591 3.591 0 0 1 0 6.775 3.6 3.6 0 1 0 1.211-7zM102.416 94.473a4.326 4.326 0 0 0-1.211.191 4.349 4.349 0 0 1 0 8.37 4.33 4.33 0 0 0 1.211.191 4.376 4.376 0 1 0 0-8.752z"/><path fill="#26a3b9" d="M89.326,105.4H85.7l2.6-2.6a1.75,1.75,0,0,0-2.475-2.475L80.751,105.4H79.284a5.021,5.021,0,0,0-2.939-2.939v-1.467l5.074-5.074a1.75,1.75,0,0,0-2.475-2.475l-2.6,2.6V92.414a1.75,1.75,0,0,0-3.5,0V96.04l-2.6-2.6a1.75,1.75,0,1,0-2.475,2.475l5.074,5.074v1.467a5.021,5.021,0,0,0-2.939,2.939H68.439l-5.074-5.075a1.75,1.75,0,0,0-2.475,2.475l2.6,2.6H59.864a1.75,1.75,0,1,0,0,3.5h3.625l-2.6,2.6a1.75,1.75,0,1,0,2.475,2.475l5.074-5.074h1.467a5.021,5.021,0,0,0,2.939,2.939V113.3l-5.074,5.075a1.75,1.75,0,0,0,2.475,2.475l2.6-2.6v3.626a1.75,1.75,0,0,0,3.5,0V118.25l2.6,2.6a1.75,1.75,0,0,0,2.475-2.475L76.345,113.3v-1.466a5.021,5.021,0,0,0,2.939-2.939h1.467l5.074,5.074A1.75,1.75,0,0,0,88.3,111.5l-2.6-2.6h3.626a1.75,1.75,0,0,0,0-3.5Zm-14.731,3.271a1.521,1.521,0,1,1,1.521-1.521A1.523,1.523,0,0,1,74.595,108.667Z"/><path fill="#168aa5" d="M68.3 93.44l2.6 2.6V94.1l-.658-.658a1.749 1.749 0 0 0-2.208-.218A1.757 1.757 0 0 1 68.3 93.44zM61.423 100.32L66.5 105.4h1.467c.042-.112.109-.208.159-.316l-4.759-4.76a1.749 1.749 0 0 0-2.208-.218A1.757 1.757 0 0 1 61.423 100.32zM86.359 100.32a1.749 1.749 0 0 1 0 2.475l-2.6 2.6H85.7l2.6-2.6a1.749 1.749 0 0 0-2.208-2.693A1.757 1.757 0 0 1 86.359 100.32zM74.4 92.414V96.04L76.345 94.1V92.414a1.749 1.749 0 0 0-2.721-1.456A1.747 1.747 0 0 1 74.4 92.414zM79.478 93.44a1.749 1.749 0 0 1 0 2.475L74.4 100.989v1.467a5.021 5.021 0 0 1 2.939 2.939H78.81l.316-.316a5 5 0 0 0-2.781-2.624v-1.467l5.074-5.074a1.749 1.749 0 0 0-2.208-2.693A1.757 1.757 0 0 1 79.478 93.44zM73.073 107.146a1.512 1.512 0 0 1 .551-1.162 1.507 1.507 0 0 0-.971-.36 1.521 1.521 0 0 0 0 3.043 1.507 1.507 0 0 0 .971-.36A1.512 1.512 0 0 1 73.073 107.146zM67.964 108.9H66.5l-5.074 5.074a1.765 1.765 0 0 1-.267.218 1.748 1.748 0 0 0 2.208-.218l4.759-4.759C68.074 109.1 68.006 109.007 67.964 108.9zM85.7 108.9H83.759l2.6 2.6a1.748 1.748 0 0 1-.267 2.693A1.75 1.75 0 0 0 88.3 111.5zM70.9 118.25l-2.6 2.6a1.757 1.757 0 0 1-.267.218 1.749 1.749 0 0 0 2.208-.218l.658-.659zM89.326 105.4H87.385a1.75 1.75 0 0 1 0 3.5h1.941a1.75 1.75 0 0 0 0-3.5zM74.4 118.25v3.626a1.747 1.747 0 0 1-.779 1.456 1.749 1.749 0 0 0 2.721-1.456v-1.684zM76.345 113.3v-1.466a5 5 0 0 0 2.781-2.624l-.316-.316H77.343a5.021 5.021 0 0 1-2.939 2.939V113.3l5.074 5.075a1.748 1.748 0 0 1-.267 2.693 1.75 1.75 0 0 0 2.208-2.693z"/></svg>