<svg xmlns="http://www.w3.org/2000/svg" viewBox="0 0 30 30"><g fill="#ffd60a"><circle cx="15" cy="15" r="6"/><path fill="#ffbb0a" d="M15 6A1 1 0 0 1 14 5V3a1 1 0 0 1 2 0v2a1 1 0 0 1-1 1zM15 28a1 1 0 0 1-1-1v-2a1 1 0 0 1 2 0v2a1 1 0 0 1-1 1zM5 16H3a1 1 0 0 1 0-2h2a1 1 0 0 1 0 2zM27 16h-2a1 1 0 0 1 0-2h2a1 1 0 0 1 0 2zM6.51 24.49a1 1 0 0 1-.7-.3 1 1 0 0 1 0-1.41l1.41-1.42a1.0040916 1.0040916 0 0 1 1.42 1.42l-1.42 1.41a1 1 0 0 1-.71.3zM22.07 8.93a1 1 0 0 1-.71-.29 1 1 0 0 1 0-1.42l1.42-1.41a1 1 0 0 1 1.41 1.41l-1.41 1.42a1 1 0 0 1-.71.29zM23.49 24.49a1 1 0 0 1-.71-.3l-1.42-1.41a1.0040916 1.0040916 0 0 1 1.42-1.42l1.41 1.42a1 1 0 0 1 0 1.41 1 1 0 0 1-.7.3zM7.93 8.93A1 1 0 0 1 7.22 8.64L5.81 7.22A1 1 0 0 1 7.22 5.81l1.42 1.41a1 1 0 0 1 0 1.42 1 1 0 0 1-.71.29z"/></g></svg>