<svg xmlns="http://www.w3.org/2000/svg" data-name="Layer 1" viewBox="0 0 64 64"><circle cx="25" cy="27" r="12" fill="#ffa620"/><path fill="#fff" d="M52.98041,36.88831C52.985,36.7583,53,36.6311,53,36.5a11.00115,11.00115,0,0,0-21.51056-3.25116A13.996,13.996,0,1,0,27,60.5H50a11.99308,11.99308,0,0,0,2.98041-23.61169Z"/><path d="M61.96,47.46a12.03412,12.03412,0,0,0-8.98-10.57c.49868-8.238-8.78738-14.06145-15.99-10.18-.44809-12.551-17.1299-16.10058-22.73-5.06995,4.71376-8.48467,17.73494-5.83635,18.69,3.92a12.929,12.929,0,0,0-4.66,5.29A15.99041,15.99041,0,0,0,15.8,33.43a9.87432,9.87432,0,0,1-2.79-6.62,11.9274,11.9274,0,0,0,4.42,9.49,13.942,13.942,0,0,0-4.27,8.14,12.089,12.089,0,0,1,15.69-9.3,2.00977,2.00977,0,0,0,2.55-1.3c2.76371-8.793,15.33562-8.19972,17.36.69-2.40453-.33949-11.18139,1.42278-9.06009,5.08A2.00886,2.00886,0,0,0,42.47,40.17c6.47086-4.41445,15.65874.5039,15.52992,8.3302A10.01628,10.01628,0,0,1,48,58.5H25A12.016,12.016,0,0,1,13.06,47.73,13.99518,13.99518,0,0,0,27,60.5H50A12.03306,12.03306,0,0,0,61.96,47.46Z" opacity=".1"/><path d="M36,41.5a2.00022,2.00022,0,0,0,.00009,4A2.00022,2.00022,0,0,0,36,41.5Z" opacity=".1"/><path fill="#000" d="M54.95508 35.41748a13.06168 13.06168 0 0 0-16.20453-11.504 13.99427 13.99427 0 1 0-23.90338 12.2071A15.97973 15.97973 0 0 0 27 62.5H50a13.99334 13.99334 0 0 0 4.95508-27.08252zM25 16.5a10.01381 10.01381 0 0 1 9.94983 9.06226 12.91063 12.91063 0 0 0-4.66272 5.2854A15.96128 15.96128 0 0 0 17.80042 33.431 9.99344 9.99344 0 0 1 25 16.5zm25 42H27a11.996 11.996 0 1 1 3.84766-23.35693 2.0119 2.0119 0 0 0 2.55273-1.30371 8.98473 8.98473 0 0 1 17.35638.69244 13.82514 13.82514 0 0 0-8.49993 2.30267 2.00009 2.00009 0 1 0 2.21484 3.33106 10.1277 10.1277 0 0 1 7.99957-1.34442A9.99384 9.99384 0 0 1 50 58.5zM8 26.5a2.0001 2.0001 0 0 0-2-2H2a2 2 0 0 0 0 4H6A2.0001 2.0001 0 0 0 8 26.5z"/><path fill="#000" d="M7.5459 34.26807l-3.46485 2a1.9999 1.9999 0 1 0 2 3.46386l3.46485-2a1.9999 1.9999 0 1 0-2-3.46386zM41.45605 19.00049c.77366.12679 3.76912-1.96221 4.4629-2.26856a1.9999 1.9999 0 1 0-2-3.46386l-3.46485 2a2.00018 2.00018 0 0 0 1.002 3.73242zM33.5 11.77734a2.00146 2.00146 0 0 0 2.73242-.73193l2-3.46387a2.00032 2.00032 0 0 0-3.46484-2l-2 3.46387A2 2 0 0 0 33.5 11.77734zM25 9.5a2.0001 2.0001 0 0 0 2-2v-4a2 2 0 0 0-4 0v4A2.0001 2.0001 0 0 0 25 9.5zM13.76758 11.04541a2.00032 2.00032 0 0 0 3.46484-2l-2-3.46387a2.00032 2.00032 0 0 0-3.46484 2zM9.5459 15.26807l-3.46485-2a1.9999 1.9999 0 1 0-2 3.46386l3.46485 2a1.9999 1.9999 0 1 0 2-3.46386z"/><circle cx="38" cy="43.5" r="2" fill="#000"/></svg>