<svg xmlns="http://www.w3.org/2000/svg" viewBox="0 0 48 48"><g data-name="Layer 27"><path fill="#fff" d="M4.667 19.6a1.021 1.021 0 0 0 .333.058 1 1 0 0 0 .333-1.943 5 5 0 1 1 3.512-9.359.986.986 0 0 0 .816-.034 1 1 0 0 0 .519-.633 4.982 4.982 0 0 1 8.327-2.237 10.882 10.882 0 0 0-1.1 2.566A10 10 0 0 0 18 28h7a1 1 0 0 0 0-2h-7a8 8 0 1 1 .031-16h.005c.024 0 .14 0 .163.007a1 1 0 0 0 .981-.8 9 9 0 0 1 17.64 0 1 1 0 0 0 .981.8L38 10a8 8 0 0 1 0 16h-9a1 1 0 0 0 0 2h2a3 3 0 0 1 0 6H21a1 1 0 0 0 0 2h10a5.006 5.006 0 0 0 5-5 4.948 4.948 0 0 0-1.026-3H38a10 10 0 0 0 .589-19.982 10.986 10.986 0 0 0-18.9-4.207A6.989 6.989 0 0 0 8.6 6.186 6.9 6.9 0 0 0 7 6a7 7 0 0 0-2.333 13.6zM37 38H25a1 1 0 0 0 0 2h12a3 3 0 0 1 0 6 1 1 0 0 0 0 2 5 5 0 0 0 0-10zM7 40h14a1 1 0 0 0 0-2H7a1 1 0 0 0 0 2zm-5-5a1 1 0 0 0 1 1h12a1 1 0 0 0 0-2H3a1 1 0 0 0-1 1zm7 7H1a1 1 0 0 0 0 2h8a1 1 0 0 0 0-2zm16 0h-8a1 1 0 0 0 0 2h8a1 1 0 0 0 0-2z"/><path fill="#fff" d="M19 32a1 1 0 0 0 0-2h-6a1 1 0 0 0 0 2zm28 2h-6a1 1 0 0 0 0 2h6a1 1 0 0 0 0-2z"/></g></svg>